<?xml version="1.0" encoding="UTF-8"?>
<svg id="Layer_1" data-name="Layer 1" xmlns="http://www.w3.org/2000/svg" viewBox="0 0 750.28 343.65">
  <defs>
    <style>
      .cls-1 {
        fill: #fff;
        stroke-width: 0px;
      }
    </style>
  </defs>
  <path class="cls-1" d="M163.62,159.97c83.25-9.75,181.01,3.17,253.42-46.02,2.82-1.96,5.61-4,8.36-6.11,1.32,1.39.86.91,2.18,2.3-51.34,59.74-141.11,63.33-215.11,64.08-16.49.19-55.7.57-71.71,1.25-17.85.44-35.6,2.25-52.79,6.8-.65-1.85-.4-1.13-1.05-2.98,14.63-6.48,39.66-14.98,76.69-19.32"/>
  <path class="cls-1" d="M418.38,81.12c9.64-1.08,19.77-1.46,29.39-1.34,57.35.63,106.88,6.54,160.67,28.04,13.88,5.7,32.1,12.59,44.28,21.22-.91,1.67-.6,1.11-1.51,2.78-12.58-5.22-36.46-12.76-45.73-15.29-54.47-14.34-101.59-17.26-157.81-17.72-9.36-.04-18.24.18-27.48,1.09-60.06,6-117.68,25.8-173.85,47.66-.86-1.73-.54-1.09-1.4-2.83,28.32-17.3,97.46-55.09,173.44-63.63"/>
  <path class="cls-1" d="M542.33,171.32c-36.36,1.12-73.17-5.2-108.77-7.84-19.46-1.44-39.01-1.83-58.56-.82-2.33.12-4.66.26-6.99.41-.34-1.86-.23-1.26-.57-3.12,21.41-6.36,43.94-9.44,66.37-10.19,36.76-1.24,72,3.01,108.12,2.55,38.81-.87,71.61-7.6,110.12-13.99.55,1.77.39,1.24.94,3.01-19.83,9.17-62.34,28.49-110.67,29.98"/>
  <path class="cls-1" d="M642.65,249.32v-69.13h10.25v69.53c0,2.37.48,4,3.53,4s6.92-.52,6.92-.52v9.29s-3.15.22-7.32.22c-10.48,0-13.38-3.58-13.38-13.39"/>
  <path class="cls-1" d="M234.36,262.71v-61.89h10.32v8.54c1.15-1.83,2.3-3.35,3.47-4.56,1.16-1.22,2.69-2.18,4.57-2.9,1.88-.72,4.43-1.23,7.65-1.53,3.22-.31,7.47-.46,12.73-.46v8.65c-7.09,0-12.58.25-16.47.75-3.89.5-6.67,1.35-8.35,2.55-1.68,1.2-2.71,2.86-3.06,4.97-.36,2.11-.54,4.8-.54,8.06v37.82h-10.32Z"/>
  <path class="cls-1" d="M357.11,244.34c0,4.62-.69,8.26-2.07,10.91-1.38,2.65-3.48,4.59-6.31,5.8-2.83,1.22-6.44,1.99-10.83,2.34-4.39.34-9.61.51-15.66.51-6.91,0-12.78-.35-17.59-1.05-4.82-.7-8.7-2.13-11.66-4.3-2.95-2.17-5.1-5.42-6.45-9.75-1.34-4.34-2.01-10.12-2.01-17.35s.65-12.64,1.96-16.87c1.31-4.22,3.43-7.41,6.37-9.56,2.94-2.15,6.8-3.58,11.58-4.3,4.78-.72,10.63-1.07,17.54-1.07,7.92,0,14.47.55,19.66,1.66,5.19,1.11,9.07,3.22,11.63,6.34,2.56,3.12,3.84,7.68,3.84,13.7v13.27h-62.21c.04,4.59.36,8.26.97,11.01.61,2.76,1.83,4.84,3.65,6.23,1.83,1.4,4.56,2.32,8.19,2.77,3.64.45,8.48.67,14.53.67,5.44,0,9.84-.11,13.19-.32,3.35-.22,5.89-.69,7.63-1.42,1.74-.73,2.91-1.83,3.52-3.3.61-1.47.91-3.44.91-5.91h9.62ZM321.98,208.24c-5.84,0-10.54.22-14.1.64s-6.28,1.26-8.14,2.5c-1.86,1.23-3.13,3.07-3.79,5.51-.66,2.44-1.01,5.64-1.05,9.62h52.33v-5.16c0-2.58-.3-4.72-.89-6.42-.59-1.7-1.75-3.04-3.47-4.03-1.72-.99-4.25-1.67-7.6-2.07-3.35-.39-7.78-.59-13.3-.59"/>
  <path class="cls-1" d="M370.65,262.71v-61.89h10.32v8.22c1.54-2.08,3.45-3.81,5.72-5.21,2.27-1.39,5.32-2.44,9.13-3.14,3.81-.7,8.82-1.05,15.02-1.05,8.09,0,14.48.79,19.15,2.36,4.67,1.58,8,4.39,9.97,8.43,1.97,4.05,2.95,9.78,2.95,17.19v35.08h-10.37v-35.08c0-4.23-.36-7.63-1.07-10.21-.72-2.58-1.94-4.53-3.68-5.86-1.74-1.32-4.13-2.21-7.17-2.66-3.04-.45-6.91-.67-11.6-.67-7.16,0-12.79.59-16.87,1.77-4.08,1.18-6.97,3.04-8.65,5.56-1.68,2.52-2.53,5.81-2.53,9.86v37.28h-10.32Z"/>
  <path class="cls-1" d="M485.09,262.71c-6.3,0-11.36-.64-15.15-1.91-3.8-1.27-6.55-3.53-8.25-6.77-1.7-3.24-2.55-7.8-2.55-13.67v-56.46h10.31v16.92h35.4l2.69,8.49h-38.09v31.05c0,4.01.37,7,1.1,8.97.73,1.97,2.22,3.26,4.46,3.87,2.24.61,5.59.91,10.07.91,3.98,0,7.1-.13,9.37-.38,2.27-.25,3.95-.92,5.02-2.02,1.08-1.09,1.76-2.89,2.04-5.4s.43-6.03.43-10.58h9.13c0,5.95-.37,10.71-1.1,14.29s-2.04,6.29-3.92,8.11c-1.88,1.83-4.51,3.04-7.9,3.65-3.38.61-7.75.91-13.08.91"/>
  <path class="cls-1" d="M542.76,200.28c4.42-.43,10-.64,16.73-.64,7.23,0,13.06.46,17.49,1.4,4.42.93,7.79,2.6,10.1,5.02,2.31,2.42,3.87,5.8,4.67,10.13.81,4.34,1.21,9.92,1.21,16.76v29.76h-10.32v-4.24c-1.22,1.29-2.9,2.33-5.05,3.11-2.15.79-5.01,1.37-8.57,1.75-3.56.38-8.12.57-13.67.57-7.41,0-13.53-.39-18.35-1.16-4.82-.77-8.4-2.46-10.74-5.08-2.35-2.61-3.52-6.68-3.52-12.19s1.1-9.75,3.3-12.38c2.2-2.63,5.7-4.34,10.48-5.13,4.78-.79,11.06-1.18,18.83-1.18,6.3,0,11.58.14,15.85.43,4.26.29,8.08.79,11.44,1.5-.07-4.76-.39-8.51-.97-11.26-.57-2.74-1.65-4.77-3.22-6.1-1.58-1.32-3.88-2.18-6.9-2.55-3.03-.38-7.05-.56-12.06-.56-5.73,0-10.22.13-13.46.38l-3.28-8.33ZM555.36,255.51c6.12,0,11.01-.07,14.67-.22,3.65-.14,6.38-.54,8.19-1.18,1.81-.64,3-1.68,3.57-3.12.57-1.43.86-3.44.86-6.02v-9.51l-27.29-.32c-4.84-.07-8.73,0-11.69.19-2.95.2-5.2.63-6.74,1.29-1.54.66-2.57,1.7-3.09,3.12-.52,1.42-.78,3.32-.78,5.72s.26,4.17.78,5.53c.52,1.36,1.55,2.36,3.09,3.01,1.54.64,3.79,1.06,6.74,1.24,2.96.18,6.85.27,11.69.27"/>
  <path class="cls-1" d="M610.37,249.32v-69.13h10.25v69.53c0,2.37.48,4,3.52,4s6.92-.52,6.92-.52v9.29s-3.15.22-7.32.22c-10.48,0-13.38-3.58-13.38-13.39"/>
  <path class="cls-1" d="M159.46,244.35c0,4.62-.69,8.25-2.07,10.9-1.38,2.65-3.48,4.58-6.31,5.8-2.83,1.22-6.44,1.99-10.82,2.34-4.39.34-9.6.51-15.65.51-6.91,0-12.77-.35-17.58-1.05-4.82-.7-8.7-2.13-11.65-4.3-2.95-2.17-5.1-5.41-6.44-9.75-1.34-4.33-2.01-10.11-2.01-17.34s.65-12.63,1.96-16.86c1.31-4.22,3.43-7.41,6.36-9.56,2.93-2.15,6.79-3.58,11.57-4.3,4.78-.72,10.62-1.07,17.53-1.07,7.91,0,14.46.56,19.65,1.66,5.19,1.11,9.06,3.22,11.62,6.34,2.56,3.11,3.84,7.68,3.84,13.69v13.26h-62.17c.04,4.58.36,8.25.97,11.01.61,2.76,1.82,4.83,3.65,6.23,1.83,1.4,4.56,2.32,8.19,2.76,3.63.45,8.47.67,14.52.67,5.44,0,9.83-.11,13.18-.32,3.35-.21,5.89-.69,7.63-1.42,1.74-.73,2.91-1.83,3.52-3.3.61-1.47.91-3.44.91-5.91h9.61ZM124.35,208.27c-5.84,0-10.53.22-14.09.64-3.56.43-6.27,1.26-8.14,2.5-1.86,1.23-3.12,3.07-3.78,5.5-.66,2.43-1.01,5.64-1.05,9.61h52.3v-5.16c0-2.58-.29-4.72-.88-6.42-.59-1.7-1.75-3.04-3.46-4.03-1.72-.98-4.25-1.67-7.6-2.07-3.35-.39-7.78-.59-13.29-.59"/>
  <path class="cls-1" d="M197.56,250.28h-2.44c0-9.54-7.73-17.26-17.26-17.26v-2.44c9.5,0,17.26-7.77,17.26-17.26h2.44c0,9.53,7.73,17.26,17.26,17.26v2.44c-9.5,0-17.26,7.77-17.26,17.26"/>
</svg>